<?xml version="1.0" encoding="UTF-8"?>
<!-- Generator: Adobe Illustrator 16.0.4, SVG Export Plug-In . SVG Version: 6.00 Build 0)  -->
<!DOCTYPE svg PUBLIC "-//W3C//DTD SVG 1.1//EN" "http://www.w3.org/Graphics/SVG/1.1/DTD/svg11.dtd">
<svg version="1.1" id="Layer_1" xmlns="http://www.w3.org/2000/svg" xmlns:xlink="http://www.w3.org/1999/xlink" x="0px" y="0px" width="431.834px" height="65.357px" viewBox="0 0 431.834 65.357" enable-background="new 0 0 431.834 65.357" xml:space="preserve">
<g>
	<path fill="#FFFFFF" d="M297.858,58.922V47.504l7.928,12.736h0.779V46.317L307.881,45h-3.98l1.32,1.316v9.688L298.348,45h-3.15   l1.293,1.316v12.605l-1.293,1.318h3.977L297.858,58.922z M286.083,59.417c-3.049,0-4.107-3.645-4.107-6.797   s1.059-6.793,4.107-6.793c3.076,0,4.135,3.641,4.135,6.793S289.159,59.417,286.083,59.417 M279.987,52.62   c0,3.877,2.193,7.955,6.096,7.955c3.928,0,6.121-4.078,6.121-7.955c0-3.873-2.193-7.957-6.121-7.957   C282.18,44.663,279.987,48.747,279.987,52.62 M273.093,59.026V46.137h2.893l1.628,1.627V45h-10.72v2.764l1.653-1.627h2.867v12.889   l-1.188,1.215h4.081L273.093,59.026z M261.81,53.319v4.906c-0.361,0.361-1.086,1.086-2.508,1.086c-3.383,0-5.089-3.412-5.089-6.691   c0-3.309,2.146-6.691,5.089-6.691c0.777,0,1.344,0.182,1.861,0.725l1.679,1.654V45.67c-0.903-0.465-1.808-0.879-3.54-0.879   c-4.157,0-7.078,3.721-7.078,7.828c0,4.029,2.921,7.828,7.078,7.828c2.352,0,3.36-0.568,4.186-1.111v-6.018l1.188-1.215h-4.081   L261.81,53.319z M239.21,58.922V47.504l8.019,12.742l0.688-0.006V46.317L249.234,45h-3.979l1.317,1.316v9.688L239.701,45h-3.152   l1.294,1.316v12.605l-1.294,1.318h3.978L239.21,58.922z M228.283,45l1.214,1.213v12.812l-1.214,1.215h4.106l-1.214-1.215V46.213   L232.389,45H228.283z M214.744,52.594h6.407v6.432l-1.213,1.215h4.109l-1.216-1.215V46.213L224.046,45h-4.109l1.213,1.213v5.246   h-6.407v-5.246L215.96,45h-4.084l1.188,1.213v12.812l-1.188,1.215h4.084l-1.216-1.215V52.594z M207.875,56.004   c0-1.498-0.698-2.428-1.422-2.92l-3.099-2.246c-1.112-0.801-1.682-1.836-1.682-2.609c0-1.604,1.37-2.17,2.197-2.17   c0.439,0,0.749,0.182,0.983,0.182l1.341,1.445l1.422-2.119L204.594,45c-0.208-0.053-0.336-0.078-0.725-0.078   c-2.661,0-3.875,2.273-3.875,3.746c0,1.162,0.594,2.479,1.962,3.486l3.126,2.248c0.854,0.594,1.084,1.473,1.084,2.221   c0,1.293-0.8,2.688-2.532,2.688c-0.411,0-0.774-0.076-1.059-0.207l-1.445-1.705l-1.317,2.377l2.918,0.568   c0,0,0.492,0.104,0.903,0.104C205.472,60.448,207.875,58.897,207.875,56.004 M190.82,48.383l2.094,6.303h-4.264L190.82,48.383z    M187.151,59.053l1.112-3.23h5.037l1.059,3.23l-1.188,1.188h4.315L196.272,59l-4.754-14h-0.776l-4.83,14l-1.24,1.24h3.668   L187.151,59.053z M170.946,60.241l3.487-11.029l3.385,11.029h0.775l4.416-14.027L184.251,45h-3.669l1.188,1.186l-3.228,10.543   l-3.127-10.543L176.604,45h-4.315l1.215,1.213l0.31,1.008l-2.918,9.508l-3.126-10.543L168.958,45h-4.315l1.239,1.213l4.29,14.027   H170.946z M148.358,51.104l-0.58,0.559l0.064,0.213h1.78c-0.278,1.934-0.537,3.607-0.944,6.312c-0.58,4.012-1.072,5.43-1.479,5.771   c-0.13,0.131-0.344,0.195-0.537,0.195c-0.259,0-0.667-0.195-0.945-0.322c-0.259-0.131-0.473,0.021-0.6,0.15   c-0.172,0.193-0.365,0.49-0.365,0.73c0,0.428,0.558,0.643,0.923,0.643c0.407,0,1.437-0.346,2.36-1.482   c0.729-0.9,1.716-2.982,2.553-7.832c0.151-0.904,0.323-1.805,0.688-4.166l2.187-0.213l0.474-0.559h-2.531   c0.643-3.969,1.179-5.174,2.103-5.174c0.643,0,1.181,0.26,1.652,0.711c0.15,0.15,0.386,0.15,0.6-0.021   c0.172-0.152,0.431-0.496,0.431-0.793c0.022-0.432-0.559-0.902-1.288-0.902c-1.246,0-2.553,0.73-3.455,1.801   c-0.839,1.012-1.395,2.641-1.696,4.379H148.358z M138.699,56.729c0-3.178,1.609-4.895,2.276-5.174   c0.192-0.086,0.492-0.172,0.708-0.172c1.072,0,1.693,0.816,1.693,2.471c0.045,2.785-1.416,5.322-2.317,5.621   c-0.172,0.064-0.45,0.148-0.664,0.148C139.194,59.624,138.699,58.336,138.699,56.729 M142.369,50.59   c-0.558,0-1.437,0.258-2.317,0.773c-1.482,0.877-3.091,2.873-3.091,5.879c0,1.502,0.709,3.178,2.704,3.178   c0.945,0,2.296-0.623,3.199-1.438c1.415-1.289,2.254-3.5,2.254-5.41C145.118,51.792,144.172,50.59,142.369,50.59 M117.499,46.213   l3.85,6.949v5.863l-1.213,1.215h4.105l-1.214-1.215v-5.863l3.927-6.922l1.267-1.24h-3.771l1.188,1.186l-3.205,5.713l-3.047-5.713   L120.574,45h-4.314L117.499,46.213z M109.466,59.026V46.137h2.894l1.627,1.627V45h-10.722v2.764l1.653-1.627h2.867v12.889   l-1.187,1.215h4.083L109.466,59.026z M95.644,45l1.215,1.213v12.812l-1.215,1.215h4.108l-1.214-1.215V46.213L99.752,45H95.644z    M91.227,56.004c0-1.498-0.699-2.428-1.42-2.92l-3.102-2.246c-1.112-0.801-1.677-1.836-1.677-2.609c0-1.604,1.367-2.17,2.194-2.17   c0.439,0,0.749,0.182,0.982,0.182l1.344,1.445l1.42-2.119L87.946,45c-0.206-0.053-0.335-0.078-0.724-0.078   c-2.66,0-3.875,2.273-3.875,3.746c0,1.162,0.594,2.479,1.965,3.486l3.124,2.248c0.853,0.594,1.085,1.473,1.085,2.221   c0,1.293-0.802,2.688-2.531,2.688c-0.414,0-0.775-0.076-1.059-0.207l-1.448-1.705l-1.318,2.377l2.92,0.568   c0,0,0.491,0.104,0.905,0.104C88.824,60.448,91.227,58.897,91.227,56.004 M71.644,46.137h1.862c1.627,0,2.917,1.393,2.917,3.045   c0,1.578-1.315,2.818-2.917,2.818h-1.862V46.137z M71.644,59.026v-5.889h2.3l3.692,7.104h2.533l-1.189-1.215l-3.408-6.252   c1.704-0.516,2.867-2.117,2.867-3.562c0-2.586-2.403-4.211-4.934-4.211h-4.729l1.189,1.213v12.812l-1.189,1.215h4.083   L71.644,59.026z M64.799,60.241v-2.787l-1.628,1.65h-4.624v-6.406h3.436l1.215,1.213v-3.564l-1.215,1.215h-3.436v-5.424h4.624   l1.628,1.627V45H55.68l1.188,1.213v12.812l-1.188,1.215H64.799z M45.036,45h-4.315l1.24,1.213l4.289,14.027h0.775l4.418-14.027   L52.684,45h-3.667l1.188,1.186l-3.23,10.543l-3.126-10.543L45.036,45z M33.204,45l1.215,1.213v12.812l-1.215,1.215h4.107   l-1.213-1.215V46.213L37.311,45H33.204z M19.021,58.922V47.504l8.177,12.736h0.531V46.317L29.044,45h-3.978l1.319,1.316v9.688   L19.514,45h-3.151l1.289,1.316v12.605l-1.289,1.318h3.976L19.021,58.922z M1.869,56.159c0,2.506,2.118,4.416,4.729,4.416   c2.479,0,4.932-1.832,4.932-4.416v-9.842L12.821,45H8.845l1.314,1.316v9.842c0,1.758-1.394,3.152-3.151,3.152   c-1.782,0-3.357-1.367-3.357-3.152v-9.842L4.969,45H0.55l1.318,1.316V56.159z"/>
</g>
<line fill="none" stroke="#FFFFFF" stroke-width="0.5" x1="0" y1="32.551" x2="431.834" y2="32.551"/>
<g>
	<path fill="#FFFFFF" d="M9.252,20.972H1.565l1.77-1.77V2.205l-1.77-1.77h7.687c6.353,0,9.398,5.019,9.398,10.269   C18.65,15.954,15.605,20.972,9.252,20.972z M9.252,2.118H6.468V19.29h2.785c3.945,0,5.685-3.974,5.685-8.586   C14.938,6.092,13.197,2.118,9.252,2.118z"/>
	<path fill="#FFFFFF" d="M22.387,20.972l1.77-1.77V2.205l-1.77-1.77h12.879v4.032l-2.35-2.35H27.29v7.02h4.032l1.77-1.77v5.222   l-1.77-1.77H27.29v8.47h5.627l2.35-2.349v4.032H22.387z"/>
	<path fill="#FFFFFF" d="M46.14,12.27h-2.495v6.933l1.77,1.77h-6.672l1.77-1.77V2.205l-1.77-1.77h7.397   c3.771,0,7.803,1.799,7.803,5.917C53.943,10.472,49.911,12.27,46.14,12.27z M46.14,2.118h-2.495v8.47h2.495   c2.35,0,4.235-1.596,4.235-4.235S48.49,2.118,46.14,2.118z"/>
	<path fill="#FFFFFF" d="M67.02,20.972l1.741-1.74l-1.306-4.061h-6.758l-1.363,4.061l1.74,1.74h-5.511l1.798-1.798l6.526-18.739   h1.915l6.382,18.739l1.798,1.798H67.02z M64.148,5.134l-2.872,8.354h5.598L64.148,5.134z"/>
	<path fill="#FFFFFF" d="M88.684,20.972l-4.902-9.427h-2.727v7.658l1.77,1.77h-6.672l1.77-1.77V2.205l-1.77-1.77h7.397   c3.481,0,7.078,1.799,7.078,5.627c0,2.146-1.566,4.148-3.829,4.873l4.554,8.267l1.77,1.77H88.684z M83.55,2.118h-2.495v7.745h2.495   c1.972,0,3.51-1.508,3.51-3.8C87.06,3.713,85.58,2.118,83.55,2.118z"/>
	<path fill="#FFFFFF" d="M107.099,2.118h-3.452v17.085l1.77,1.77h-6.671l1.769-1.77V2.118h-3.452l-2.35,2.35V0.435h14.736v4.032   L107.099,2.118z"/>
	<path fill="#FFFFFF" d="M127.283,20.972l1.77-1.77V3.858l-6.411,11.4l-6.41-11.4v15.345l1.769,1.77h-5.511l1.77-1.77V2.205   l-1.77-1.77h5.454l5.598,9.979l5.569-9.979h4.844l-1.77,1.77v16.998l1.77,1.77H127.283z"/>
	<path fill="#FFFFFF" d="M137.429,20.972l1.77-1.77V2.205l-1.77-1.77h12.879v4.032l-2.35-2.35h-5.627v7.02h4.032l1.77-1.77v5.222   l-1.77-1.77h-4.032v8.47h5.627l2.35-2.349v4.032H137.429z"/>
	<path fill="#FFFFFF" d="M169.42,2.205v20.45L157.527,4.177v15.025l1.769,1.77h-5.511l1.77-1.77V2.205l-1.77-1.77h5.134   l8.528,13.373V2.205l-1.77-1.77h5.511L169.42,2.205z"/>
	<path fill="#FFFFFF" d="M186.471,2.118h-3.452v17.085l1.77,1.77h-6.671l1.769-1.77V2.118h-3.452l-2.35,2.35V0.435h14.735v4.032   L186.471,2.118z"/>
	<path fill="#FFFFFF" d="M209.438,21.407c-5.424,0-8.818-5.337-8.818-10.704S204.013,0,209.438,0s8.818,5.337,8.818,10.704   S214.862,21.407,209.438,21.407z M209.438,1.683c-3.916,0-5.047,4.96-5.047,9.021s1.131,9.021,5.047,9.021   c3.916,0,5.047-4.96,5.047-9.021S213.354,1.683,209.438,1.683z"/>
	<path fill="#FFFFFF" d="M232.523,2.118h-5.628v7.02h4.032l1.77-1.77v5.222l-1.77-1.77h-4.032v8.383l1.77,1.77h-6.672l1.77-1.77   V2.205l-1.77-1.77h12.88v4.032L232.523,2.118z"/>
	<path fill="#FFFFFF" d="M253.691,12.27h-2.494v6.933l1.77,1.77h-6.672l1.77-1.77V2.205l-1.77-1.77h7.396   c3.771,0,7.803,1.799,7.803,5.917C261.494,10.472,257.462,12.27,253.691,12.27z M253.691,2.118h-2.494v8.47h2.494   c2.35,0,4.235-1.596,4.235-4.235S256.041,2.118,253.691,2.118z"/>
	<path fill="#FFFFFF" d="M270.163,21.204c-0.609,0-1.306-0.058-1.799-0.145l-4.264-0.754l2.06-3.771l2.262,2.843   c0.465,0.29,1.307,0.435,1.973,0.435c2.727,0,3.539-2.35,3.539-3.626c0-1.479-0.928-2.408-1.856-3.017l-4.206-2.756   c-1.74-1.131-2.756-2.785-2.756-4.699c0-3.742,3.075-5.511,5.859-5.511c0.929,0,1.77,0.174,2.553,0.319l3.133,0.58l-2.059,3.48   l-1.857-2.262c-0.406-0.377-0.898-0.609-1.596-0.609c-1.972,0-3.104,1.508-3.104,2.843c0,1.131,0.552,2.176,2.118,3.22l3.626,2.408   c1.596,1.073,3.017,2.437,3.017,4.641C276.805,18.129,274.804,21.204,270.163,21.204z"/>
	<path fill="#FFFFFF" d="M294.205,2.205l-5.076,9.282v7.716l1.77,1.77h-6.672l1.77-1.77v-7.774l-5.191-9.195l-1.799-1.799h7.107   l-1.74,1.741l3.973,7.223l3.801-7.223l-1.74-1.741h5.568L294.205,2.205z"/>
	<path fill="#FFFFFF" d="M306.936,21.262c-5.31,0-8.731-5.192-8.731-10.559c0-5.453,3.51-10.559,8.731-10.559   c2.668,0,4.09,0.667,5.191,1.218v4.206l-2.814-2.813c-0.666-0.696-1.393-0.986-2.377-0.986c-3.917,0-4.962,4.931-4.962,8.934   s1.189,8.934,4.962,8.934c0.984,0,1.711-0.29,2.377-0.986l2.814-2.814v4.235C311.112,20.682,309.807,21.262,306.936,21.262z"/>
	<path fill="#FFFFFF" d="M326.481,20.972l1.77-1.77V10.82h-7.746v8.383l1.77,1.77h-6.67l1.768-1.77V2.205l-1.768-1.77h6.67   l-1.77,1.77v6.933h7.746V2.205l-1.77-1.77h6.672l-1.77,1.77v16.998l1.77,1.77H326.481z"/>
	<path fill="#FFFFFF" d="M345.708,21.407c-5.424,0-8.818-5.337-8.818-10.704S340.284,0,345.708,0s8.818,5.337,8.818,10.704   S351.131,21.407,345.708,21.407z M345.708,1.683c-3.916,0-5.047,4.96-5.047,9.021s1.131,9.021,5.047,9.021s5.047-4.96,5.047-9.021   S349.624,1.683,345.708,1.683z"/>
	<path fill="#FFFFFF" d="M358.262,20.972l1.77-1.77V2.205l-1.77-1.77h6.672l-1.77,1.77V19.29h4.902l2.35-2.349v4.032H358.262z"/>
	<path fill="#FFFFFF" d="M382.42,21.407c-5.424,0-8.818-5.337-8.818-10.704S376.997,0,382.42,0s8.818,5.337,8.818,10.704   S387.844,21.407,382.42,21.407z M382.42,1.683c-3.916,0-5.047,4.96-5.047,9.021s1.131,9.021,5.047,9.021s5.047-4.96,5.047-9.021   S386.336,1.683,382.42,1.683z"/>
	<path fill="#FFFFFF" d="M411.334,11.632v8.122c-1.42,0.841-2.783,1.508-6.178,1.508c-5.57,0-9.92-4.844-9.92-10.559   s4.496-10.559,10.064-10.559c2.379,0,3.887,0.551,5.164,1.189v4.235l-2.814-2.813c-0.666-0.667-1.363-0.986-2.35-0.986   c-3.945,0-6.266,4.67-6.266,8.934s2.32,8.934,6.266,8.934c1.307,0,2.379-0.493,2.9-1.015v-6.991l-1.77-1.77h6.672L411.334,11.632z"/>
	<path fill="#FFFFFF" d="M429.663,2.205l-5.076,9.282v7.716l1.77,1.77h-6.672l1.77-1.77v-7.774l-5.193-9.195l-1.797-1.799h7.105   l-1.74,1.741l3.975,7.223l3.799-7.223l-1.74-1.741h5.57L429.663,2.205z"/>
</g>
</svg>